<svg xmlns="http://www.w3.org/2000/svg" xmlns:xlink="http://www.w3.org/1999/xlink" width="150" zoomAndPan="magnify" viewBox="0 0 112.5 60" height="80" preserveAspectRatio="xMidYMid meet" version="1.0"><defs><g/><clipPath id="d22b4d1190"><path d="M 0 0.132812 L 48 0.132812 L 48 34 L 0 34 Z M 0 0.132812 " clip-rule="nonzero"/></clipPath><clipPath id="3f52e4f66d"><path d="M 15.109375 24.625 L 20.144531 24.625 L 20.144531 30.675781 L 15.109375 30.675781 Z M 15.109375 24.625 " clip-rule="nonzero"/></clipPath></defs><g fill="#72bfc1" fill-opacity="1"><g transform="translate(14.826053, 33.034191)"><g><path d="M 1.515625 -12.734375 L 7.296875 -12.734375 C 8.679688 -12.734375 9.90625 -12.46875 10.96875 -11.9375 C 12.03125 -11.414062 12.851562 -10.675781 13.4375 -9.71875 C 14.03125 -8.757812 14.328125 -7.644531 14.328125 -6.375 C 14.328125 -5.09375 14.03125 -3.972656 13.4375 -3.015625 C 12.851562 -2.054688 12.03125 -1.3125 10.96875 -0.78125 C 9.90625 -0.257812 8.679688 0 7.296875 0 L 1.515625 0 Z M 7.15625 -2.421875 C 8.425781 -2.421875 9.441406 -2.773438 10.203125 -3.484375 C 10.960938 -4.191406 11.34375 -5.15625 11.34375 -6.375 C 11.34375 -7.582031 10.960938 -8.539062 10.203125 -9.25 C 9.441406 -9.96875 8.425781 -10.328125 7.15625 -10.328125 L 4.453125 -10.328125 L 4.453125 -2.421875 Z M 7.15625 -2.421875 "/></g></g></g><g fill="#72bfc1" fill-opacity="1"><g transform="translate(29.859596, 33.034191)"><g><path d="M 1.515625 -12.734375 L 4.453125 -12.734375 L 4.453125 0 L 1.515625 0 Z M 1.515625 -12.734375 "/></g></g></g><g fill="#72bfc1" fill-opacity="1"><g transform="translate(35.829334, 33.034191)"><g><path d="M 10.125 -6.578125 L 12.8125 -6.578125 L 12.8125 -1.40625 C 12.125 -0.882812 11.320312 -0.484375 10.40625 -0.203125 C 9.5 0.078125 8.582031 0.21875 7.65625 0.21875 C 6.332031 0.21875 5.144531 -0.0625 4.09375 -0.625 C 3.039062 -1.1875 2.210938 -1.96875 1.609375 -2.96875 C 1.003906 -3.976562 0.703125 -5.113281 0.703125 -6.375 C 0.703125 -7.632812 1.003906 -8.765625 1.609375 -9.765625 C 2.210938 -10.765625 3.046875 -11.546875 4.109375 -12.109375 C 5.179688 -12.671875 6.382812 -12.953125 7.71875 -12.953125 C 8.832031 -12.953125 9.84375 -12.765625 10.75 -12.390625 C 11.664062 -12.015625 12.429688 -11.472656 13.046875 -10.765625 L 11.15625 -9.015625 C 10.25 -9.972656 9.148438 -10.453125 7.859375 -10.453125 C 7.046875 -10.453125 6.320312 -10.28125 5.6875 -9.9375 C 5.0625 -9.59375 4.570312 -9.113281 4.21875 -8.5 C 3.863281 -7.882812 3.6875 -7.175781 3.6875 -6.375 C 3.6875 -5.582031 3.863281 -4.875 4.21875 -4.25 C 4.570312 -3.632812 5.0625 -3.15625 5.6875 -2.8125 C 6.3125 -2.46875 7.023438 -2.296875 7.828125 -2.296875 C 8.671875 -2.296875 9.4375 -2.476562 10.125 -2.84375 Z M 10.125 -6.578125 "/></g></g></g><g fill="#72bfc1" fill-opacity="1"><g transform="translate(49.861854, 33.034191)"><g><path d="M 1.515625 -12.734375 L 4.453125 -12.734375 L 4.453125 0 L 1.515625 0 Z M 1.515625 -12.734375 "/></g></g></g><g fill="#72bfc1" fill-opacity="1"><g transform="translate(55.831592, 33.034191)"><g/></g></g><g fill="#72bfc1" fill-opacity="1"><g transform="translate(60.982308, 33.034191)"><g><path d="M 4.15625 -10.34375 L 0.078125 -10.34375 L 0.078125 -12.734375 L 11.171875 -12.734375 L 11.171875 -10.34375 L 7.09375 -10.34375 L 7.09375 0 L 4.15625 0 Z M 4.15625 -10.34375 "/></g></g></g><g fill="#72bfc1" fill-opacity="1"><g transform="translate(72.230162, 33.034191)"><g><path d="M 9.90625 -2.734375 L 3.984375 -2.734375 L 2.859375 0 L -0.15625 0 L 5.515625 -12.734375 L 8.421875 -12.734375 L 14.125 0 L 11.03125 0 Z M 8.96875 -4.96875 L 6.953125 -9.84375 L 4.9375 -4.96875 Z M 8.96875 -4.96875 "/></g></g></g><g fill="#72bfc1" fill-opacity="1"><g transform="translate(86.171678, 33.034191)"><g><path d="M 1.515625 -12.734375 L 4.453125 -12.734375 L 4.453125 -2.40625 L 10.84375 -2.40625 L 10.84375 0 L 1.515625 0 Z M 1.515625 -12.734375 "/></g></g></g><g fill="#72bfc1" fill-opacity="1"><g transform="translate(55.34803, 36.983482)"><g><path d="M 7.75 0.15625 L 6.703125 -0.828125 C 5.867188 -0.171875 4.894531 0.15625 3.78125 0.15625 C 3.144531 0.15625 2.570312 0.0507812 2.0625 -0.15625 C 1.5625 -0.363281 1.164062 -0.648438 0.875 -1.015625 C 0.59375 -1.378906 0.453125 -1.789062 0.453125 -2.25 C 0.453125 -2.789062 0.601562 -3.265625 0.90625 -3.671875 C 1.207031 -4.085938 1.695312 -4.476562 2.375 -4.84375 C 2.050781 -5.175781 1.816406 -5.488281 1.671875 -5.78125 C 1.535156 -6.070312 1.46875 -6.378906 1.46875 -6.703125 C 1.46875 -7.117188 1.578125 -7.488281 1.796875 -7.8125 C 2.023438 -8.132812 2.34375 -8.382812 2.75 -8.5625 C 3.164062 -8.75 3.644531 -8.84375 4.1875 -8.84375 C 4.945312 -8.84375 5.554688 -8.660156 6.015625 -8.296875 C 6.472656 -7.929688 6.703125 -7.441406 6.703125 -6.828125 C 6.703125 -6.378906 6.566406 -5.976562 6.296875 -5.625 C 6.023438 -5.28125 5.585938 -4.945312 4.984375 -4.625 L 6.578125 -3.140625 C 6.773438 -3.535156 6.921875 -3.988281 7.015625 -4.5 L 8.578125 -4.015625 C 8.410156 -3.242188 8.144531 -2.582031 7.78125 -2.03125 L 8.796875 -1.078125 Z M 4.1875 -7.515625 C 3.894531 -7.515625 3.660156 -7.4375 3.484375 -7.28125 C 3.316406 -7.132812 3.234375 -6.945312 3.234375 -6.71875 C 3.234375 -6.539062 3.28125 -6.375 3.375 -6.21875 C 3.46875 -6.070312 3.648438 -5.867188 3.921875 -5.609375 C 4.335938 -5.835938 4.628906 -6.039062 4.796875 -6.21875 C 4.960938 -6.394531 5.046875 -6.585938 5.046875 -6.796875 C 5.046875 -7.015625 4.96875 -7.1875 4.8125 -7.3125 C 4.664062 -7.445312 4.457031 -7.515625 4.1875 -7.515625 Z M 3.921875 -1.375 C 4.523438 -1.375 5.066406 -1.539062 5.546875 -1.875 L 3.4375 -3.859375 C 3.050781 -3.628906 2.773438 -3.40625 2.609375 -3.1875 C 2.441406 -2.976562 2.359375 -2.734375 2.359375 -2.453125 C 2.359375 -2.128906 2.5 -1.867188 2.78125 -1.671875 C 3.0625 -1.472656 3.441406 -1.375 3.921875 -1.375 Z M 3.921875 -1.375 "/></g></g></g><g clip-path="url(#d22b4d1190)"><path stroke-linecap="butt" transform="matrix(1.092095, 0.0199695, -0.0199695, 1.092095, 16.232675, 13.506123)" fill="none" stroke-linejoin="miter" d="M 0.000374815 1.500237 L 11.396176 1.499316 " stroke="#72bfc1" stroke-width="3" stroke-opacity="1" stroke-miterlimit="4"/></g><g clip-path="url(#3f52e4f66d)"><path fill="#ffffff" d="M 15.109375 24.625 L 20.144531 24.625 L 20.144531 30.675781 L 15.109375 30.675781 Z M 15.109375 24.625 " fill-opacity="1" fill-rule="nonzero"/></g><path stroke-linecap="butt" transform="matrix(1.092277, 0, 0, 1.092277, 84.5528, 36.147252)" fill="none" stroke-linejoin="miter" d="M 0.00172819 1.499532 L 11.392066 1.499532 " stroke="#72bfc1" stroke-width="3" stroke-opacity="1" stroke-miterlimit="4"/></svg>